<mxfile host="drawio-plugin" modified="2022-03-25T11:17:28.056Z" agent="5.0 (Windows NT 6.2; Win64; x64) AppleWebKit/537.36 (KHTML, like Gecko) Chrome/89.0.4389.114 Safari/537.36" etag="wDGMBrfvSAk1ijqYtscS" version="15.5.4" type="embed"><diagram id="23iRSUPoRavnBvh4doch" name="Page-1"><mxGraphModel dx="1045" dy="1671" grid="1" gridSize="10" guides="1" tooltips="1" connect="1" arrows="1" fold="1" page="1" pageScale="1" pageWidth="827" pageHeight="1169" math="0" shadow="0"><root><mxCell id="0"/><mxCell id="1" parent="0"/><mxCell id="2" value="usager" style="shape=umlActor;verticalLabelPosition=bottom;verticalAlign=top;html=1;outlineConnect=0;" vertex="1" parent="1"><mxGeometry x="50" y="-950" width="30" height="60" as="geometry"/></mxCell><mxCell id="3" value="" style="swimlane;startSize=0;" vertex="1" parent="1"><mxGeometry x="130" y="-1120" width="590" height="990" as="geometry"/></mxCell><mxCell id="5" value="employée" style="shape=umlActor;verticalLabelPosition=bottom;verticalAlign=top;html=1;outlineConnect=0;" vertex="1" parent="1"><mxGeometry x="760" y="-770" width="30" height="60" as="geometry"/></mxCell><mxCell id="8" style="edgeStyle=orthogonalEdgeStyle;rounded=0;orthogonalLoop=1;jettySize=auto;html=1;entryX=0.5;entryY=0;entryDx=0;entryDy=0;entryPerimeter=0;" edge="1" parent="1" source="6" target="5"><mxGeometry relative="1" as="geometry"/></mxCell><mxCell id="6" value="Adminstrateur" style="shape=umlActor;verticalLabelPosition=bottom;verticalAlign=top;html=1;outlineConnect=0;" vertex="1" parent="1"><mxGeometry x="760" y="-970" width="30" height="60" as="geometry"/></mxCell></root></mxGraphModel></diagram></mxfile>